<?xml version="1.0" encoding="iso-8859-1"?>
<!-- Generator: Adobe Illustrator 21.0.0, SVG Export Plug-In . SVG Version: 6.00 Build 0)  -->
<svg xmlns="http://www.w3.org/2000/svg" xmlns:xlink="http://www.w3.org/1999/xlink" version="1.1" id="Capa_1" x="0px" y="0px" viewBox="0 0 512 512" style="enable-background:new 0 0 512 512;" xml:space="preserve" width="512" height="512">
<g>
	<path d="M330.482,241c-1.948-9.556-5.762-19.424-10.975-27.29l11.717-11.708c5.859-5.845,5.859-15.352,0-21.211   s-15.352-5.859-21.211,0l-11.715,11.706c-7.866-5.217-17.738-9.031-27.298-10.979V165c0-8.291-6.709-15-15-15s-15,6.709-15,15   v16.518c-9.556,1.948-19.424,5.762-27.29,10.975l-11.708-11.717c-5.859-5.859-15.352-5.859-21.211,0   c-5.859,5.845-5.859,15.352,0,21.211l11.706,11.715c-5.217,7.866-9.031,17.738-10.979,27.298H165c-8.291,0-15,6.709-15,15   s6.709,15,15,15h16.518c1.948,9.556,5.762,19.424,10.975,27.29l-11.717,11.708c-5.859,5.845-5.859,15.352,0,21.211   s15.352,5.859,21.211,0l11.715-11.706c7.866,5.217,17.738,9.031,27.298,10.979V347c0,8.291,6.709,15,15,15s15-6.709,15-15v-16.518   c9.556-1.948,19.424-5.762,27.29-10.975l11.708,11.717c5.859,5.859,15.352,5.859,21.211,0c5.859-5.845,5.859-15.352,0-21.211   l-11.706-11.715c5.217-7.866,9.031-17.738,10.979-27.298H347c8.291,0,15-6.709,15-15s-6.709-15-15-15H330.482z"/>
	<path d="M256,0c-54.093,0-106.256,16.738-149.795,48.138C101.162,46.179,95.728,45,90,45c-24.814,0-45,20.186-45,45   c0,5.728,1.179,11.162,3.138,16.205C16.738,149.744,0,201.907,0,256c0,140.61,115.39,256,256,256   c54.093,0,106.256-16.738,149.795-48.138C410.838,465.821,416.272,467,422,467c24.814,0,45-20.186,45-45   c0-5.728-1.179-11.162-3.138-16.205C495.262,362.256,512,310.093,512,256C512,115.39,396.61,0,256,0z M442.944,382.414   C436.658,379.073,429.603,377,422,377c-24.814,0-45,20.186-45,45c0,7.603,2.073,14.658,5.414,20.944   C345.251,468.1,301.432,482,256,482C131.928,482,30,380.072,30,256c0-45.432,13.9-89.251,39.056-126.414   C75.342,132.927,82.397,135,90,135c24.814,0,45-20.186,45-45c0-7.603-2.073-14.658-5.414-20.944C166.749,43.9,210.568,30,256,30   c124.072,0,226,101.928,226,226C482,301.432,468.1,345.251,442.944,382.414z"/>
	<path d="M256,90c-90.981,0-166,75.019-166,166s75.019,166,166,166s166-75.019,166-166S346.981,90,256,90z M256,392   c-74.443,0-136-61.557-136-136s61.557-136,136-136s136,61.557,136,136S330.443,392,256,392z"/>
</g>















</svg>
