<?xml version="1.0" encoding="iso-8859-1"?>
<!-- Generator: Adobe Illustrator 19.0.0, SVG Export Plug-In . SVG Version: 6.00 Build 0)  -->
<svg version="1.1" id="Capa_1" xmlns="http://www.w3.org/2000/svg" xmlns:xlink="http://www.w3.org/1999/xlink" x="0px" y="0px"
	 viewBox="0 0 480.007 480.007" style="enable-background:new 0 0 480.007 480.007;" xml:space="preserve">
<g>
	<g>
		<path d="M443.153,80.651c-0.996-0.427-2.069-0.648-3.153-0.648h-16.405c-4.176-45.277-42.126-79.937-87.595-80H144
			c-48.578,0.055-87.945,39.422-88,88v80H8c-4.417-0.001-7.999,3.579-8,7.996c0,0.001,0,0.003,0,0.004v112
			c-0.001,4.417,3.579,7.999,7.996,8c0.001,0,0.003,0,0.004,0h112c4.417,0.001,7.999-3.579,8-7.996c0-0.001,0-0.003,0-0.004v-112
			c0.001-4.417-3.579-7.999-7.996-8c-0.001,0-0.003,0-0.004,0H72v-80c0.045-39.746,32.254-71.955,72-72h192
			c36.644,0.051,67.419,27.587,71.528,64H392c-4.418,0-7.999,3.581-8,7.998c0,1.084,0.22,2.157,0.648,3.154l24,56
			c1.74,4.06,6.442,5.941,10.502,4.201c1.888-0.809,3.392-2.313,4.201-4.201l24-56C449.093,87.096,447.213,82.393,443.153,80.651z
			 M112,184.004v96H16v-96H112z M416,123.695l-11.867-27.691h23.734L416,123.695z"/>
	</g>
</g>
<g>
	<g>
		<path d="M479.502,224.004c-4.02-32.008-31.242-56.015-63.502-56c-35.33-0.016-63.984,28.612-64,63.942
			c-0.015,32.259,23.992,59.482,56,63.502v80.556c-0.055,48.578-39.422,87.945-88,88H152c-45.469-0.064-83.419-34.723-87.595-80H80
			c4.418,0,7.999-3.581,8-7.998c0-1.084-0.22-2.157-0.648-3.154l-24-56c-1.74-4.06-6.442-5.941-10.502-4.201
			c-1.888,0.809-3.392,2.313-4.201,4.201l-24,56c-1.741,4.06,0.138,8.763,4.198,10.504c0.996,0.427,2.069,0.648,3.153,0.648h16.405
			c4.209,54.121,49.311,95.916,103.595,96h168c57.411-0.065,103.935-46.589,104-104v-80.556
			C459.055,291.045,483.904,259.059,479.502,224.004z M44.133,368.004L56,340.312l11.867,27.691H44.133z M416,280.004
			c-26.51,0-48-21.49-48-48c0-26.51,21.49-48,48-48c26.51,0,48,21.49,48,48C463.971,258.501,442.498,279.975,416,280.004z"/>
	</g>
</g>
<g>
	<g>
		<path d="M335.155,236.424c-0.774-1.547-2.029-2.802-3.576-3.576l-48-24c-3.954-1.974-8.761-0.369-10.735,3.585
			c-0.554,1.109-0.842,2.332-0.843,3.571v16h-64v-16c-0.002-4.42-3.587-8.001-8.007-7.999c-1.24,0.001-2.462,0.289-3.571,0.843
			l-48,24c-3.952,1.977-5.554,6.784-3.576,10.736c0.774,1.547,2.029,2.802,3.576,3.576l48,24c3.954,1.974,8.761,0.369,10.735-3.585
			c0.554-1.109,0.842-2.332,0.843-3.571v-16h64v16c0,2.773,1.437,5.348,3.797,6.805c2.358,1.458,5.302,1.591,7.781,0.352l48-24
			C335.53,245.183,337.132,240.376,335.155,236.424z M192,251.058l-22.109-11.055L192,228.949V251.058z M288,251.058v-22.109
			l22.109,11.055L288,251.058z"/>
	</g>
</g>
<g>
</g>
<g>
</g>
<g>
</g>
<g>
</g>
<g>
</g>
<g>
</g>
<g>
</g>
<g>
</g>
<g>
</g>
<g>
</g>
<g>
</g>
<g>
</g>
<g>
</g>
<g>
</g>
<g>
</g>
</svg>
